HIERARCHY
ROOT joint_Root
{
	OFFSET 0.0 0.0 0.0
	CHANNELS 6 Xposition Yposition Zposition Zrotation Xrotation Yrotation 
	JOINT Hips
	{
		OFFSET -17.1583 93.1646 452.98
		CHANNELS 6 Xposition Yposition Zposition Zrotation Xrotation Yrotation 
		JOINT Spine
		{
			OFFSET 15.7357 0.0 0.0
			CHANNELS 6 Xposition Yposition Zposition Zrotation Xrotation Yrotation 
			JOINT Chest
			{
				OFFSET 8.98455 -0.406207 0.0
				CHANNELS 6 Xposition Yposition Zposition Zrotation Xrotation Yrotation 
				JOINT Neck
				{
					OFFSET 16.3773 0.0 0.0
					CHANNELS 6 Xposition Yposition Zposition Zrotation Xrotation Yrotation 
					JOINT Head
					{
						OFFSET 6.45672 0.0 0.0
						CHANNELS 6 Xposition Yposition Zposition Zrotation Xrotation Yrotation 
						End Site
						{
							OFFSET 0.0 0.0 0.0
						}
					}
				}
				JOINT Shoulder_L
				{
					OFFSET 12.9942 -0.242716 4.98039
					CHANNELS 6 Xposition Yposition Zposition Zrotation Xrotation Yrotation 
					JOINT UpperArm_L
					{
						OFFSET 5.34809 0.0 0.0
						CHANNELS 6 Xposition Yposition Zposition Zrotation Xrotation Yrotation 
						JOINT LowerArm_L
						{
							OFFSET 24.3286 1.87007e-05 0.0
							CHANNELS 6 Xposition Yposition Zposition Zrotation Xrotation Yrotation 
							JOINT Hand_L
							{
								OFFSET 22.2916 0.0 0.0
								CHANNELS 6 Xposition Yposition Zposition Zrotation Xrotation Yrotation 
								End Site
								{
									OFFSET 0.0 0.0 0.0
								}
							}
						}
					}
				}
				JOINT Shoulder_R
				{
					OFFSET 12.9945 -0.242716 -4.98039
					CHANNELS 6 Xposition Yposition Zposition Zrotation Xrotation Yrotation 
					JOINT UpperArm_R
					{
						OFFSET -5.34813 0.0 0.0
						CHANNELS 6 Xposition Yposition Zposition Zrotation Xrotation Yrotation 
						JOINT LowerArm_R
						{
							OFFSET -24.3289 0.000322201 0.0
							CHANNELS 6 Xposition Yposition Zposition Zrotation Xrotation Yrotation 
							JOINT Hand_R
							{
								OFFSET -22.2915 -0.000108084 0.0
								CHANNELS 6 Xposition Yposition Zposition Zrotation Xrotation Yrotation 
								End Site
								{
									OFFSET 0.0 0.0 0.0
								}
							}
						}
					}
				}
			}
		}
		JOINT UpperLeg_L
		{
			OFFSET -2.19248 -6.46944 0.0
			CHANNELS 6 Xposition Yposition Zposition Zrotation Xrotation Yrotation 
			JOINT LowerLeg_L
			{
				OFFSET 39.0811 0.0 -1.23785e-05
				CHANNELS 6 Xposition Yposition Zposition Zrotation Xrotation Yrotation 
				JOINT Foot_L
				{
					OFFSET 40.9854 0.0 -1.26872e-05
					CHANNELS 6 Xposition Yposition Zposition Zrotation Xrotation Yrotation 
					JOINT Toes_L
					{
						OFFSET 11.7543 0.0 0.0
						CHANNELS 6 Xposition Yposition Zposition Zrotation Xrotation Yrotation 
						End Site
						{
							OFFSET 0.0 0.0 0.0
						}
					}
				}
			}
		}
		JOINT UpperLeg_R
		{
			OFFSET -2.19251 6.46944 0.0
			CHANNELS 6 Xposition Yposition Zposition Zrotation Xrotation Yrotation 
			JOINT LowerLeg_R
			{
				OFFSET -39.0811 -0.00228153 -0.0401928
				CHANNELS 6 Xposition Yposition Zposition Zrotation Xrotation Yrotation 
				JOINT Foot_R
				{
					OFFSET -40.9854 0.0 0.0
					CHANNELS 6 Xposition Yposition Zposition Zrotation Xrotation Yrotation 
					JOINT Toes_R
					{
						OFFSET -11.7543 0.0 0.0
						CHANNELS 6 Xposition Yposition Zposition Zrotation Xrotation Yrotation 
						End Site
						{
							OFFSET 0.0 0.0 0.0
						}
					}
				}
			}
		}
	}
}
MOTION
Frames:	4
Frame Time:	0.0333333
0.000000 0.000000 0.000000 0.000000 0.000000 -0.000000 -1.127990 93.357600 -4.154470 88.188500 0.417267 1.795750 15.735700 0.000005 -0.000001 82.294600 86.156100 -80.951300 8.984550 -0.406207 -0.000000 -0.133017 -1.123080 2.683850 16.377300 -0.000001 -0.000001 -3.677310 2.093380 -0.575772 6.456720 -0.000001 -0.000000 0.507396 2.774070 -0.944746 12.994200 -0.242716 4.980390 -92.227200 6.948890 -72.179200 5.348090 -0.000007 -0.000001 -66.876100 29.808200 -5.754760 24.328600 0.000019 0.000005 10.670400 31.003000 -20.092400 22.291600 -0.000001 0.000005 -16.657500 5.334010 -0.902587 12.994500 -0.242716 -4.980390 89.481200 1.833650 -74.198400 -5.348130 -0.000001 -0.000004 -71.835300 20.865500 -6.331150 -24.328900 0.000322 -0.000009 -0.549695 -2.969070 -10.474500 -22.291500 -0.000108 -0.000004 -11.728000 5.134510 4.311400 -2.192480 -6.469440 -0.000000 -173.452000 -6.237630 -3.484440 39.081100 -0.000007 -0.000012 0.017790 -0.060743 16.324300 40.985400 -0.000006 -0.000013 -1.375200 13.468200 -66.994800 11.754300 -0.000000 0.000003 0.000071 0.166425 -9.826750 -2.192510 6.469440 -0.000001 178.538000 6.783140 177.983000 -39.081100 -0.002282 -0.040193 0.060948 -0.225822 14.313100 -40.985400 0.000008 0.000006 -3.440810 2.756290 -68.038500 -11.754300 -0.000006 -0.000006 -0.006747 0.245145 -6.619660
0.000000 0.000000 0.000000 0.000000 0.000000 -0.000000 -1.119400 93.387400 -3.743300 88.223800 0.794945 1.041050 15.735700 0.000005 -0.000001 81.682100 86.582400 -80.387000 8.984550 -0.406207 -0.000000 -0.989196 -1.087510 2.579630 16.377300 -0.000001 -0.000001 -4.108580 1.886160 -0.515894 6.456720 -0.000001 -0.000000 0.192041 2.585140 -1.268070 12.994200 -0.242716 4.980390 -92.241400 6.660230 -71.352100 5.348090 -0.000007 -0.000001 -63.219400 22.913200 -7.345230 24.328600 0.000019 0.000005 9.473890 31.643100 -17.644800 22.291600 -0.000001 0.000005 -21.294300 5.341030 -1.109280 12.994500 -0.242716 -4.980390 89.655800 1.145770 -73.280600 -5.348130 -0.000001 -0.000004 -71.156800 10.947000 -5.804140 -24.328900 0.000322 -0.000009 -0.598524 -4.214180 -8.077270 -22.291500 -0.000108 -0.000004 -13.604500 5.082790 5.505550 -2.192480 -6.469440 -0.000000 -173.545000 -6.024100 -3.752080 39.081100 -0.000007 -0.000012 0.018791 -0.066347 15.813400 40.985400 -0.000006 -0.000013 -1.390970 13.563500 -67.104500 11.754300 -0.000000 0.000003 0.000159 0.164898 -9.888790 -2.192510 6.469440 -0.000001 178.484000 7.203080 177.811000 -39.081100 -0.002282 -0.040193 0.052886 -0.202155 13.773200 -40.985400 0.000008 0.000006 -3.899230 2.824930 -67.892200 -11.754300 -0.000006 -0.000006 -0.006572 0.243610 -6.682300
0.000000 0.000000 0.000000 0.000000 0.000000 -0.000000 -1.116000 93.392100 -3.205070 88.229300 1.259900 0.164077 15.735700 0.000005 -0.000001 79.981200 87.171400 -78.756100 8.984550 -0.406207 -0.000000 -2.182460 -1.090210 2.429210 16.377300 -0.000001 -0.000001 -4.504450 1.648760 -0.577476 6.456720 -0.000001 -0.000000 0.369735 2.390900 -1.446370 12.994200 -0.242716 4.980390 -92.134500 6.117870 -70.724100 5.348090 -0.000007 -0.000001 -58.966800 11.850000 -8.844580 24.328600 0.000019 0.000005 6.848090 29.637700 -13.650000 22.291600 -0.000001 0.000005 -22.594300 5.280480 0.613391 12.994500 -0.242716 -4.980390 89.923700 0.241259 -72.453800 -5.348130 -0.000001 -0.000004 -68.841400 0.162575 -5.534460 -24.328900 0.000322 -0.000009 -0.680058 -8.738660 -4.461300 -22.291500 -0.000108 -0.000004 -14.930600 5.040080 6.455070 -2.192480 -6.469440 -0.000000 -173.588000 -6.077250 -4.203000 39.081100 -0.000007 -0.000012 0.017026 -0.061318 15.518800 40.985400 -0.000006 -0.000013 -1.337620 13.959200 -67.372300 11.754300 -0.000000 0.000003 -0.000022 0.167990 -9.763220 -2.192510 6.469440 -0.000001 178.529000 7.652880 177.582000 -39.081100 -0.002282 -0.040193 0.048709 -0.192746 13.247300 -40.985400 0.000008 0.000006 -4.023160 2.830010 -67.827800 -11.754300 -0.000006 -0.000006 -0.006808 0.245676 -6.597990
0.000000 0.000000 0.000000 0.000000 0.000000 -0.000000 -1.096230 93.402300 -2.490200 88.278600 1.672300 -0.550357 15.735700 0.000005 -0.000001 77.521600 87.775700 -76.418900 8.984550 -0.406207 -0.000000 -3.411510 -1.068240 2.174150 16.377300 -0.000001 -0.000001 -5.109950 1.421680 -0.708740 6.456720 -0.000001 -0.000000 0.876994 2.192840 -1.527570 12.994200 -0.242716 4.980390 -91.977100 5.489170 -70.156800 5.348090 -0.000007 -0.000001 -53.534600 -0.198123 -10.463600 24.328600 0.000019 0.000005 4.949330 28.279300 -10.358300 22.291600 -0.000001 0.000005 -20.060900 5.232470 1.891290 12.994500 -0.242716 -4.980390 90.177000 -0.531956 -71.592100 -5.348130 -0.000001 -0.000004 -64.287100 -9.538540 -5.918050 -24.328900 0.000322 -0.000009 -0.000990 -11.975800 -0.000068 -22.291500 -0.000108 -0.000004 -15.612400 4.988490 7.563280 -2.192480 -6.469440 -0.000000 -173.625000 -6.313760 -4.172560 39.081100 -0.000007 -0.000012 0.009155 -0.034429 14.892300 40.985400 -0.000006 -0.000013 -1.290250 14.462000 -67.549800 11.754300 -0.000000 0.000003 -0.000436 0.174665 -9.492100 -2.192510 6.469440 -0.000001 178.450000 8.361260 177.737000 -39.081100 -0.002282 -0.040193 0.040669 -0.168085 12.523200 -40.985400 0.000008 0.000006 -4.355530 3.087820 -67.717800 -11.754300 -0.000006 -0.000006 -0.007887 0.254776 -6.226520
